<?xml version="1.0" encoding="UTF-8" standalone="no"?>
<!-- Created with Inkscape (http://www.inkscape.org/) -->
<svg
   xmlns:dc="http://purl.org/dc/elements/1.1/"
   xmlns:cc="http://creativecommons.org/ns#"
   xmlns:rdf="http://www.w3.org/1999/02/22-rdf-syntax-ns#"
   xmlns:svg="http://www.w3.org/2000/svg"
   xmlns="http://www.w3.org/2000/svg"
   xmlns:xlink="http://www.w3.org/1999/xlink"
   xmlns:sodipodi="http://sodipodi.sourceforge.net/DTD/sodipodi-0.dtd"
   xmlns:inkscape="http://www.inkscape.org/namespaces/inkscape"
   width="500px"
   height="400px"
   id="svg2"
   sodipodi:version="0.32"
   inkscape:version="0.46"
   sodipodi:docbase="/home/gerrit/workspace/cutout_generator/res"
   sodipodi:docname="elfy-timeline-layers-keyframe.svg"
   inkscape:output_extension="org.inkscape.output.svg.inkscape">
  <defs
     id="defs4">
    <inkscape:perspective
       sodipodi:type="inkscape:persp3d"
       inkscape:vp_x="0 : 200 : 1"
       inkscape:vp_y="0 : 1000 : 0"
       inkscape:vp_z="500 : 200 : 1"
       inkscape:persp3d-origin="250 : 133.33333 : 1"
       id="perspective127" />
  </defs>
  <sodipodi:namedview
     id="base"
     pagecolor="#ffffff"
     bordercolor="#666666"
     borderopacity="1.0"
     inkscape:pageopacity="0.0"
     inkscape:pageshadow="2"
     inkscape:zoom="3.867874"
     inkscape:cx="135.86721"
     inkscape:cy="247.565"
     inkscape:document-units="px"
     inkscape:current-layer="svg2"
     inkscape:window-width="1440"
     inkscape:window-height="842"
     inkscape:window-x="0"
     inkscape:window-y="26"
     showgrid="false" />
  <metadata
     id="metadata7">
    <rdf:RDF>
      <cc:Work
         rdf:about="">
        <dc:format>image/svg+xml</dc:format>
        <dc:type
           rdf:resource="http://purl.org/dc/dcmitype/StillImage" />
      </cc:Work>
    </rdf:RDF>
  </metadata>
  <g
     inkscape:label="Layer 1"
     inkscape:groupmode="layer"
     id="rectlayer">
    <path
       style="fill:#ff0700;fill-opacity:1;stroke:#000000;stroke-width:0.68683141;stroke-miterlimit:4;stroke-dasharray:none;stroke-opacity:1"
       d="M -5.9131835,6.6180707 L -5.9131835,-5.7844722 L 7.0293272,-5.7844722 L 7.0293272,6.6180707 L -5.9131835,6.6180707 z "
       id="redrect" />
    <g
       id="steps"
       inkscape:label="#g3172">
      <use
         inkscape:label="step4"
         height="400"
         width="550"
         transform="translate(161.6244,158.59395)"
         id="use3136"
         xlink:href="#redrect"
         y="0"
         x="0" />
      <use
         inkscape:label="step3"
         height="400"
         width="550"
         transform="translate(116.16754,100.00511)"
         id="use3164"
         xlink:href="#redrect"
         y="0"
         x="0" />
      <use
         inkscape:label="step2"
         height="400"
         width="550"
         transform="translate(91.923876,50.507626)"
         id="use3166"
         xlink:href="#redrect"
         y="0"
         x="0" />
      <use
         inkscape:label="step1"
         height="400"
         width="550"
         transform="translate(31.314726,51.517776)"
         id="use3168"
         xlink:href="#redrect"
         y="0"
         x="0" />
      <use
         height="400"
         width="550"
         transform="translate(-18.18275,18.182745)"
         id="use3170"
         xlink:href="#redrect"
         y="0"
         x="0"
         inkscape:label="step0" />
    </g>
    <rect
       style="fill:none;fill-opacity:1;stroke:#000000;stroke-width:4;stroke-miterlimit:4;stroke-dasharray:none;stroke-opacity:1"
       id="bigrect"
       width="200"
       height="200"
       x="-100"
       y="-100"
       inkscape:label="#rect3199" />
  </g>
  <g
     inkscape:label="Ebene 1"
     inkscape:groupmode="layer"
     id="layer1">
    <path
       style="fill:#ffaa00;fill-opacity:1;fill-rule:evenodd;stroke:#001122;stroke-width:1px;stroke-linecap:butt;stroke-linejoin:miter;stroke-opacity:1"
       d="M -12.515625,57.822143 C -10.166515,53.012783 -4.1953946,43.618083 0.15522542,37.703603 C 4.1724554,32.242383 7.9165254,28.354793 12.879145,23.299113 C 19.011665,17.051633 22.441495,10.189353 24.121505,3.1938426 C 26.616175,-7.1938974 24.863865,-14.180317 19.610435,-21.051017 C 14.228465,-28.089837 9.5402654,-33.079897 2.3223854,-36.605437 C -4.8892946,-40.127947 -9.5045246,-40.781487 -17.716555,-40.705227 C -22.110885,-40.664417 -21.276695,-39.958757 -24.845825,-39.210387 C -33.425135,-39.130707 -39.214045,-23.894147 -40.373705,-19.065317 C -42.063225,-12.030237 -39.513715,-3.3587074 -37.330965,0.90729258 C -34.024035,7.3703526 -31.988505,7.2734926 -30.042475,16.554563 C -28.245375,25.125403 -32.894945,29.672823 -35.584045,35.178253 C -38.879975,41.926043 -27.526235,48.749733 -25.438545,50.799003 C -20.606615,55.542013 -19.787635,57.889683 -12.515625,57.822143 z "
       id="elfyFoot"
       inkscape:label="elfyFoot" />
    <path
       style="fill:#ffaa00;fill-opacity:1;fill-rule:evenodd;stroke:#001122;stroke-width:1px;stroke-linecap:butt;stroke-linejoin:miter;stroke-opacity:1"
       d="M 25.89931,-1.9235344 C 25.89931,5.7548056 16.33301,10.627386 14.47073,18.076466 C 8.8144996,40.701416 8.7564496,60.898296 8.7564496,85.219326 C 8.7564496,103.97305 10.1861,120.93793 14.47073,138.07647 C 15.60469,142.61232 -5.6354304,146.6479 -8.3864104,146.6479 C -6.1950804,155.41321 -14.76651,129.69893 -16.95784,120.93362 C -18.57566,114.46234 -22.25411,109.74854 -24.1007,102.36219 C -26.62116,92.280326 -31.98651,84.361666 -34.1007,73.790756 C -35.97226,64.432906 -34.1007,51.828536 -34.1007,42.362186 C -34.1007,33.592556 -30.56148,23.855176 -26.95784,16.647896 C -23.8088,10.349816 -22.50923,0.60781556 -19.81498,-4.7806744 C -17.85469,-8.7012644 -16.5718,-12.039104 -15.52927,-16.209244 C -12.5456,-22.176584 -11.66268,-23.604464 -6.9578404,-24.780674 C -0.044100354,-26.509114 6.3216196,-25.998094 14.47073,-21.923534 C 19.6237,-19.347044 30.00997,-10.144854 25.89931,-1.9235344 z "
       id="elfyLowerLeg"
       inkscape:label="elfyLowerLeg" />
    <path
       style="fill:#ffaa00;fill-opacity:1;fill-rule:evenodd;stroke:#001122;stroke-width:1px;stroke-linecap:butt;stroke-linejoin:miter;stroke-opacity:1"
       d="M 20.480997,8.6056297 C 18.065207,0.51551969 5.4365868,-18.36289 -1.3060832,-30.44975 C -5.6050932,-38.15612 -7.5115732,-44.32701 -12.135073,-48.55034 C -13.000413,-46.60448 -13.865743,-44.65862 -14.731083,-42.71277 C -16.217263,-39.37084 -17.869393,-30.29039 -21.156553,-26.69178 C -22.219913,-25.52765 -31.714573,-16.44968 -32.057013,-14.75844 C -34.529073,-2.5492903 -34.326563,-3.2155203 -25.832123,-3.5997603 C -11.160483,-4.2634203 -25.521903,3.4937697 -23.824023,9.1796897 C -20.725983,19.55456 -22.363133,22.03953 -14.938583,15.92793 C -9.7057732,11.62048 1.9878668,5.6599697 -0.53835321,18.13661 C -1.1343032,21.07994 -9.6525532,33.27201 -8.3263832,35.64929 C -4.7852432,41.9971 -0.16429321,59.69143 3.9297168,53.68531 C 7.1704868,48.93094 8.4618568,43.09771 10.355187,37.6643 C 15.093187,24.06737 18.980957,5.9166597 20.480997,8.6056297 z "
       id="elfyToes"
       inkscape:label="elfyToes" />
    <path
       style="fill:#ffaa00;fill-opacity:1;fill-rule:evenodd;stroke:#001122;stroke-width:1px;stroke-linecap:butt;stroke-linejoin:miter;stroke-opacity:1"
       d="M 13.042159,3.790757 C 2.066699,-2.991433 -20.990001,-12.542733 -38.386411,-19.066393 C -69.897571,-30.883073 -101.79167,-34.033153 -134.10069,-40.494963 C -144.58933,-42.592693 -155.86277,-43.792623 -165.52927,-46.209243 C -181.70787,-50.253903 -200.07027,-52.765463 -178.38641,-41.923533 C -166.14597,-35.803313 -154.06674,-36.192273 -142.67212,-30.494963 C -127.71111,-23.014453 -113.80857,-19.634613 -98.386411,-11.923533 C -83.699901,-4.580273 -70.297741,9.215387 -55.529271,18.076467 C -44.746881,24.545897 -36.364471,33.999557 -24.100691,30.933607 C -13.762721,28.349117 -2.811231,15.358427 4.470729,8.076467 C 6.729499,5.817697 10.185019,5.219327 13.042159,3.790757 z "
       id="elfyEar"
       inkscape:label="elfyEar" />
    <path
       style="fill:#ffaa00;fill-opacity:1;fill-rule:evenodd;stroke:#001122;stroke-width:1px;stroke-linecap:butt;stroke-linejoin:miter;stroke-opacity:1"
       d="M 25.972605,-103.42926 C 25.965935,-113.53079 5.6283855,-104.08416 -4.1731545,-106.52767 C -16.458705,-109.59043 -28.263155,-106.64408 -40.209065,-109.62217 C -49.084735,-111.83486 -30.036035,-94.268806 -23.563635,-87.804956 C -12.223215,-76.479506 -9.4158845,-55.968906 -13.138355,-41.037106 C -17.229275,-24.627346 -23.912145,-10.766766 -33.899415,0.90063406 C -42.538162,10.589802 -41.823727,15.408195 -22.103545,24.453454 C -16.043225,27.680484 -6.4417945,31.114634 1.1153755,31.714174 C 10.869255,32.488004 28.347215,34.689574 30.907795,24.418424 C 33.819525,12.738734 40.374635,0.11833406 41.278595,-11.275816 C 42.321565,-24.422086 41.089745,-40.442216 37.092925,-53.543556 C 34.835085,-60.944576 22.247635,-99.077636 25.972605,-103.42926 z "
       id="elfyBody"
       inkscape:label="elfyBody"
       sodipodi:nodetypes="cssssccssssc" />
    <path
       style="fill:#ffaa00;fill-opacity:1;fill-rule:evenodd;stroke:#001122;stroke-width:1px;stroke-linecap:butt;stroke-linejoin:miter;stroke-opacity:1"
       d="M -26.957837,0.93361122 C -26.481647,-0.018768776 -25.787517,-0.89052878 -25.529267,-1.9235288 C -23.513507,-9.9865688 -16.957837,-17.216969 -16.957837,-26.209249 C -16.957837,-41.264039 -21.990387,-61.736819 -21.243547,-61.923529 C -14.753307,-63.546089 -1.0184873,-62.818449 3.0421627,-60.494959 C 0.86773271,-51.797239 3.0421627,-39.599849 3.0421627,-30.494959 C 3.0421627,-23.172089 4.1799327,-14.515319 5.8993027,-7.6378188 C 6.8056627,-4.0124088 10.614413,-1.4941388 13.042163,0.93361122 C 14.737343,7.7143412 -4.7347973,11.806421 -6.9578373,12.362181 C -14.002977,14.123471 -18.751047,13.608431 -24.100697,10.933611 C -29.021237,8.4733412 -28.297437,7.6316312 -26.957837,0.93361122 z "
       id="elfyNeck"
       inkscape:label="elfyNeck" />
    <path
       style="fill:#ffaa00;fill-opacity:1;fill-rule:evenodd;stroke:#001122;stroke-width:1px;stroke-linecap:butt;stroke-linejoin:miter;stroke-opacity:1"
       d="M 28.756443,-23.352105 C 26.038063,-12.478565 6.7728533,-27.776575 -4.1006967,-30.494965 C -7.7757267,-31.413715 -8.2868467,-29.657735 -11.243557,-29.066385 C -12.078217,-29.275055 -18.844247,5.6221155 -19.814977,9.5050355 C -21.770917,17.328765 -19.814977,28.493405 -19.814977,36.647895 C -19.814977,48.097245 -18.218887,57.317995 -15.529267,68.076465 C -13.904827,74.574225 -10.187697,80.871315 -8.3864067,88.076465 C -8.1281567,89.109465 -7.4340267,89.981225 -6.9578367,90.933615 C -6.1943767,93.987465 15.491133,88.535655 17.327873,88.076465 C 19.409953,96.404795 15.899303,70.946825 15.899303,62.362185 C 15.899303,56.933545 12.761573,46.954115 11.613593,42.362185 C 9.6071033,34.336215 12.905803,24.336195 14.470733,18.076465 C 16.335223,10.618505 18.197873,2.0507555 21.613593,-4.7806745 C 24.345533,-10.244565 27.165163,-16.986945 28.756443,-23.352105 z "
       id="elfyUpperArm"
       inkscape:label="elfyUpperArm" />
    <path
       style="fill:#ffaa00;fill-opacity:1;fill-rule:evenodd;stroke:#001122;stroke-width:1px;stroke-linecap:butt;stroke-linejoin:miter;stroke-opacity:1"
       d="M 12.236828,90.6084 C 21.397697,91.85978 8.9622193,72.31711 8.9054663,63.07134 C 8.8390933,52.25826 10.390444,38.03902 11.848637,27.36404 C 13.065953,18.45242 17.92739,11.18608 18.932375,3.8289097 C 19.483365,-0.20468028 22.310091,-2.0164703 22.934316,-6.5861803 C 23.958112,-14.08107 8.0472703,-29.02692 4.2380633,-34.93247 C 3.8730333,-35.49839 3.0297133,-35.5274 2.4255383,-35.82487 C -3.3055647,-44.71002 -8.5076637,-17.48378 -15.93798,-9.9616903 C -18.763261,-7.1015103 -19.488373,1.8682397 -19.91219,4.9708597 C -25.949751,11.083 -20.034226,31.22773 -17.445493,38.83791 C -14.378404,47.85433 -11.311312,56.87075 -8.2442197,65.88717 C -5.6371907,73.55114 -3.0301617,81.2151 -0.42313274,88.87906 C 0.84686026,92.6125 1.1386023,91.30028 2.7695833,93.82885 C 3.8430643,96.98459 9.0810823,91.68188 12.236828,90.6084 z "
       id="elfyLowerArm"
       inkscape:label="elfyLowerArm" />
    <path
       style="fill:#ffaa00;fill-opacity:1;fill-rule:evenodd;stroke:#001122;stroke-width:1px;stroke-linecap:butt;stroke-linejoin:miter;stroke-opacity:1"
       d="M -22.672127,-3.352106 C -15.513407,-3.352106 -24.100697,-17.621966 -24.100697,-24.780676 C -24.100697,-33.080236 -24.543647,-41.580316 -22.672127,-49.066386 C -20.253507,-58.740866 -16.206227,-54.706016 -12.672127,-47.637816 C -9.1108472,-40.515266 -8.5458772,-36.421876 -4.1006972,-30.494956 C 1.9516628,-22.425146 4.0895328,-25.485336 13.042163,-29.066386 C 20.505583,-32.051756 27.522373,-31.923536 35.899303,-31.923536 C 49.927783,-31.923536 38.139133,-24.983486 31.613593,-23.352106 C 23.446793,-21.310406 16.693763,-16.526306 25.899303,-11.923536 C 27.103983,-11.321196 27.804063,-10.018766 28.756453,-9.066386 C 33.547713,-4.275126 51.666973,-3.338756 57.327873,-1.923536 C 73.590723,2.142174 50.048033,7.039284 45.899303,8.076464 C 38.679733,9.881364 30.830813,9.505044 23.042163,9.505044 C 13.518353,9.505044 37.380953,22.388724 45.899303,26.647894 C 51.828343,29.612414 32.004543,29.011804 27.327873,28.076464 C 16.824063,25.975704 9.3001028,21.919724 1.6135928,18.076464 C -4.2181872,15.160574 -8.7830272,11.191594 -15.529267,9.505044 C -19.972007,8.394354 -21.909927,0.45888403 -22.672127,-3.352106 z "
       id="elfyHand"
       inkscape:label="elfyHand" />
    <path
       style="fill:#ffaa00;fill-opacity:1;fill-rule:evenodd;stroke:#001122;stroke-width:1px;stroke-linecap:butt;stroke-linejoin:miter;stroke-opacity:1"
       d="M -42.690089,31.892206 C -40.581156,26.769036 -35.985464,19.937366 -34.919944,14.488466 C -32.01741,-0.35462435 -25.930238,-12.098034 -14.625276,-22.300554 C -5.6547085,-30.396319 10.35931,-46.562078 15.820103,-44.003975 C 14.361269,-36.543732 24.580485,-14.806904 26.338599,-8.4676444 C 29.172346,1.7500956 29.024939,16.546006 29.572846,27.099886 C 30.402475,43.080736 28.380622,57.599196 29.211775,73.609406 C 29.892576,86.723226 26.075687,104.53459 23.516812,117.62027 C 21.738608,126.71372 18.872158,133.92844 17.179892,142.58241 C 16.997118,143.51709 16.814344,144.45176 16.63157,145.38644 C 15.074847,153.34727 -5.6779005,149.09224 -8.5735335,147.73578 C -12.037533,146.11307 -11.220451,145.69521 -13.633274,143.83511 C -16.561204,142.46353 -15.542471,120.42538 -15.708456,117.22799 C -16.065828,110.34419 -16.514875,101.69428 -16.929947,93.699066 C -17.358143,85.450836 -19.20304,81.273546 -24.581984,73.279556 C -30.264663,64.834166 -31.183831,56.230276 -35.891746,49.233526 C -39.667895,43.621546 -40.550639,39.606526 -42.690089,31.892206 z "
       id="elfyUpperLeg"
       inkscape:label="elfyUpperLeg" />
    <path
       style="fill:#ffaa00;fill-opacity:1;fill-rule:evenodd;stroke:#001122;stroke-width:1px;stroke-linecap:butt;stroke-linejoin:miter;stroke-opacity:1"
       d="M -41.243549,-33.352104 C -40.291169,-33.828294 -39.338789,-34.304484 -38.386409,-34.780674 C -29.656849,-39.145454 -15.968669,-40.494964 -4.1006987,-40.494964 C 28.794801,-40.494964 65.367661,-41.391894 64.470731,-40.494964 C 60.671951,-38.595574 64.291531,-12.635314 63.042161,-7.6378144 C 56.954768,3.3721938 55.194342,18.640511 44.470731,25.219326 C 38.716571,34.809596 9.8244913,18.503686 1.6135913,15.219326 C -10.126169,10.523426 -18.194839,7.5058656 -26.957839,0.93361559 C -34.438249,-4.6767044 -36.617269,-10.561264 -38.386409,-17.637814 C -40.069599,-24.370594 -45.483379,-24.872464 -41.243549,-33.352104 z "
       id="elfyHead"
       inkscape:label="elfyHead"
       sodipodi:nodetypes="csscccsssc" />
    <g
       id="elfy"
       inkscape:label="elfy">
      <g
         id="g3289"
         inkscape:label="elfyLeftFoot">
        <use
           height="1052.3622"
           width="744.09448"
           id="use3213"
           xlink:href="#elfyFoot"
           y="0"
           x="0"
           inkscape:label="elfyLeftFoot" />
        <use
           inkscape:label="elfyLeftToes"
           height="1052.3622"
           width="744.09448"
           id="use3217"
           xlink:href="#elfyToes"
           y="0"
           x="0" />
      </g>
      <g
         id="g3259"
         inkscape:label="elfyRightFoot">
        <use
           inkscape:label="elfyRightFoot"
           height="1052.3622"
           width="744.09448"
           id="use3199"
           xlink:href="#elfyFoot"
           y="0"
           x="0" />
        <use
           inkscape:label="elfyRightToes"
           height="1052.3622"
           width="744.09448"
           id="use3197"
           xlink:href="#elfyToes"
           y="0"
           x="0" />
      </g>
      <g
         inkscape:label="elfyBody"
         id="g3307">
        <g
           id="g3246"
           inkscape:label="elfyLeftUpperArm">
          <use
             height="1052.3622"
             width="744.09448"
             id="use3205"
             xlink:href="#elfyUpperArm"
             y="0"
             x="0"
             inkscape:label="elfyLeftUpperArm" />
          <g
             inkscape:label="elfyLeftLowerArm"
             id="g3242">
            <use
               x="0"
               y="0"
               xlink:href="#elfyLowerArm"
               id="use3207"
               width="744.09448"
               height="1052.3622"
               inkscape:label="elfyLeftLowerArm" />
            <use
               x="0"
               y="0"
               xlink:href="#elfyHand"
               id="use3191"
               width="744.09448"
               height="1052.3622"
               inkscape:label="elfyLeftHand" />
          </g>
        </g>
        <g
           id="g3299"
           inkscape:label="elfyLeftUpperLeg"
           connectWith="elfyLeftLowerLeg"
           connectTo="elfyLeftFoot">
          <use
             inkscape:label="elfyLeftUpperLeg"
             height="1052.3622"
             width="744.09448"
             id="use3211"
             xlink:href="#elfyUpperLeg"
             y="0"
             x="0" />
          <g
             inkscape:label="elfyLeftLowerLeg"
             id="g3293">
            <use
               x="0"
               y="0"
               xlink:href="#elfyLowerLeg"
               id="use3215"
               width="744.09448"
               height="1052.3622"
               inkscape:label="elfyLeftLowerLeg" />
          </g>
        </g>
        <g
           id="g3252"
           inkscape:label="elfyNeck">
          <use
             inkscape:label="elfyNeck"
             height="1052.3622"
             width="744.09448"
             id="use3201"
             xlink:href="#elfyNeck"
             y="0"
             x="0" />
          <g
             inkscape:label="elfyHead"
             id="g3219">
            <use
               height="1052.3622"
               width="744.09448"
               id="use3203"
               xlink:href="#elfyEar"
               y="0"
               x="0"
               inkscape:label="elfyLeftEar" />
            <use
               x="0"
               y="0"
               xlink:href="#elfyHead"
               id="use3183"
               width="744.09448"
               height="1052.3622"
               inkscape:label="elfyHead" />
            <use
               x="0"
               y="0"
               xlink:href="#elfyEar"
               id="use3181"
               width="744.09448"
               height="1052.3622"
               inkscape:label="elfyRightEar" />
          </g>
        </g>
        <use
           x="0"
           y="0"
           xlink:href="#elfyBody"
           id="use3185"
           width="744.09448"
           height="1052.3622"
           inkscape:label="elfyBody" />
        <g
           id="g3281"
           inkscape:label="elfyRightUpperLeg"
           connectWith="elfyRightLowerLeg"
           connectTo="elfyRightFoot">
          <use
             inkscape:label="elfyRightUpperLeg"
             height="1052.3622"
             width="744.09448"
             id="use3193"
             xlink:href="#elfyUpperLeg"
             y="0"
             x="0" />
          <g
             inkscape:label="elfyRightLowerLeg"
             id="g3263">
            <use
               x="0"
               y="0"
               xlink:href="#elfyLowerLeg"
               id="use3195"
               width="744.09448"
               height="1052.3622"
               inkscape:label="elfyRightLowerLeg" />
          </g>
        </g>
        <g
           id="g3236"
           inkscape:label="elfyRightUpperArm">
          <use
             x="0"
             y="0"
             xlink:href="#elfyUpperArm"
             id="use3228"
             width="744.09448"
             height="1052.3622"
             inkscape:label="elfyRightUpperArm" />
          <g
             id="g3230"
             inkscape:label="elfyRightLowerArm">
            <use
               inkscape:label="elfyRightLowerArm"
               height="1052.3622"
               width="744.09448"
               id="use3232"
               xlink:href="#elfyLowerArm"
               y="0"
               x="0" />
            <use
               inkscape:label="elfyRightHand"
               height="1052.3622"
               width="744.09448"
               id="use3234"
               xlink:href="#elfyHand"
               y="0"
               x="0" />
          </g>
        </g>
      </g>
    </g>
  </g><g id="elfyWalkPoses" transform="translate(-63.83849,265.2611)" inkscape:label="#g1390" class="layer">
      <g inkscape:label="frame1" id="g2411" inkscape:groupmode="layer" model="elfy" class="keyframe">
        <g transform="translate(-9.844155,-30.81359)" inkscape:label="elfy" id="elfyPose1">
          <path sodipodi:type="arc" style="opacity:1;fill:#ffd300;fill-opacity:1;fill-rule:evenodd;stroke:#000000;stroke-width:1;stroke-linecap:round;stroke-linejoin:round;stroke-miterlimit:4;stroke-dasharray:none;stroke-opacity:1" id="circle" sodipodi:cx="-2.5853996" sodipodi:cy="-4.8735819" sodipodi:rx="12.926998" sodipodi:ry="12.926998" d="M 10.341599,-4.8735819 A 12.926998,12.926998 0 1 1 -15.512398,-4.8735819 A 12.926998,12.926998 0 1 1 10.341599,-4.8735819 z" transform="matrix(0.7447681,0,0,0.7447681,1.9255231,3.62969)" inkscape:label="circle" />
          <use inkscape:label="elfyLeftUpperArm" x="0" y="0" xlink:href="#elfyUpperArm" id="use3421" transform="matrix(0.254194,-0.250854,0.250854,0.254194,142.4319,-105.5381)" width="744.09448" height="1052.3622" />
          <use x="0" y="0" xlink:href="#elfyLowerArm" id="use3425" transform="matrix(2.342359e-2,-0.356362,0.356362,2.342359e-2,174.081,-82.02944)" width="744.09448" height="1052.3622" inkscape:label="elfyLeftLowerArm" />
          <use x="0" y="0" xlink:href="#elfyHand" id="use3427" transform="matrix(0.357131,0,0,0.357131,210.8136,-81.26157)" width="744.09448" height="1052.3622" inkscape:label="elfyLeftHand" />
          <use x="0" y="0" xlink:href="#elfyNeck" id="use3431" transform="matrix(0.357131,0,0,0.357131,136.8365,-109.832)" width="744.09448" height="1052.3622" inkscape:label="elfyNeck" />
          <use inkscape:label="elfyLeftEar" height="1052.3622" width="744.09448" transform="matrix(-0.275467,0.133327,0.155587,0.321458,150.4171,-146.4306)" id="use3435" xlink:href="#elfyEar" y="0" x="0" />
          <use x="0" y="0" xlink:href="#elfyHead" id="use3437" transform="matrix(0.357131,0,0,0.357131,131.7346,-132.7904)" width="744.09448" height="1052.3622" inkscape:label="elfyHead" />
          <use x="0" y="0" xlink:href="#elfyEar" id="use3439" transform="matrix(0.357131,0,0,0.357131,115.9188,-144.0146)" width="744.09448" height="1052.3622" inkscape:label="elfyRightEar" />
          <use x="0" y="0" xlink:href="#elfyUpperLeg" id="use3443" transform="matrix(0.334802,-0.124299,0.124299,0.334802,149.2413,-65.39964)" width="744.09448" height="1052.3622" inkscape:label="elfyLeftUpperLeg" />
          <use inkscape:label="elfyLeftFoot" x="0" y="0" xlink:href="#elfyFoot" id="use3449" transform="matrix(6.521601e-2,-0.351126,0.351126,6.521601e-2,166.6805,45.15043)" width="744.09448" height="1052.3622" />
          <use x="0" y="0" xlink:href="#elfyToes" id="use3451" transform="matrix(-2.980196e-2,-0.355885,0.355885,-2.980196e-2,188.2341,55.04621)" width="744.09448" height="1052.3622" inkscape:label="elfyLeftToes" />
          <use x="0" y="0" xlink:href="#elfyLowerLeg" id="use3453" transform="matrix(0.357131,0,0,0.357131,163.8108,-12.24512)" width="744.09448" height="1052.3622" inkscape:label="elfyLeftLowerLeg" />
          <use x="0" y="0" xlink:href="#elfyBody" id="use3455" transform="matrix(0.357131,0,0,0.357131,134.2855,-73.60879)" width="744.09448" height="1052.3622" inkscape:label="elfyBody" />
          <use x="0" y="0" xlink:href="#elfyUpperLeg" id="use3461" transform="matrix(0.357131,0,0,0.357131,128.6735,-61.87448)" width="744.09448" height="1052.3622" inkscape:label="elfyRightUpperLeg" />
          <use x="0" y="0" xlink:href="#elfyFoot" id="use3467" transform="matrix(6.521601e-2,-0.351126,0.351126,6.521601e-2,131.0329,50.62124)" width="744.09448" height="1052.3622" inkscape:label="elfyRightFoot" />
          <use x="0" y="0" xlink:href="#elfyToes" id="use3469" transform="matrix(-2.980196e-2,-0.355885,0.355885,-2.980196e-2,152.5866,60.51701)" width="744.09448" height="1052.3622" inkscape:label="elfyRightToes" />
          <use x="0" y="0" xlink:href="#elfyLowerLeg" id="use3471" transform="matrix(0.357131,0,0,0.357131,128.1633,-6.774305)" width="744.09448" height="1052.3622" inkscape:label="elfyRightLowerLeg" />
          <use inkscape:label="elfyRightUpperArm" height="1052.3622" width="744.09448" transform="matrix(0.357131,0,0,0.357131,114.3883,-105.7506)" id="use3475" xlink:href="#elfyUpperArm" y="0" x="0" />
          <use inkscape:label="elfyRightLowerArm" height="1052.3622" width="744.09448" transform="matrix(0.357131,0,0,0.357131,114.3883,-71.56804)" id="use3479" xlink:href="#elfyLowerArm" y="0" x="0" />
          <use inkscape:label="elfyRightHand" height="1052.3622" width="744.09448" transform="matrix(9.488965e-2,0.344294,-0.344294,9.488965e-2,118.7921,-35.36444)" id="use3481" xlink:href="#elfyHand" y="0" x="0" />
        </g>
      </g>
      <g inkscape:groupmode="layer" id="layer2" inkscape:label="frame2" style="display:inline" class="keyframe">
        <g transform="translate(-9.395513,-31.669625)" inkscape:label="elfy" id="g2261">
          <use inkscape:label="elfyLeftUpperArm" x="0" y="0" xlink:href="#elfyUpperArm" id="use2263" transform="matrix(0.254194,-0.250854,0.250854,0.254194,182.76414,-105.79664)" width="744.09448" height="1052.3622" />
          <use x="0" y="0" xlink:href="#elfyLowerArm" id="use2265" transform="matrix(2.342359e-2,-0.356362,0.356362,2.342359e-2,214.41324,-82.28798)" width="744.09448" height="1052.3622" inkscape:label="elfyLeftLowerArm" />
          <use x="0" y="0" xlink:href="#elfyHand" id="use2267" transform="matrix(0.357131,0,0,0.357131,251.14584,-81.52011)" width="744.09448" height="1052.3622" inkscape:label="elfyLeftHand" />
          <use x="0" y="0" xlink:href="#elfyNeck" id="use2269" transform="matrix(0.357131,0,0,0.357131,173.54918,-108.28076)" width="744.09448" height="1052.3622" inkscape:label="elfyNeck" />
          <use inkscape:label="elfyLeftEar" height="1052.3622" width="744.09448" transform="matrix(-0.2347339,0.1963623,0.2291465,0.2739242,176.90473,-149.67062)" id="use2271" xlink:href="#elfyEar" y="0" x="0" />
          <use x="0" y="0" xlink:href="#elfyHead" id="use2273" transform="matrix(0.357131,0,0,0.357131,160.174,-135.89288)" width="744.09448" height="1052.3622" inkscape:label="elfyHead" />
          <use x="0" y="0" xlink:href="#elfyEar" id="use2275" transform="matrix(0.357131,0,0,0.357131,144.3582,-147.11708)" width="744.09448" height="1052.3622" inkscape:label="elfyRightEar" />
          <use x="0" y="0" xlink:href="#elfyUpperLeg" id="use2277" transform="matrix(0.1525923,-0.3228904,0.3228904,0.1525923,177.58152,-62.12886)" width="744.09448" height="1052.3622" inkscape:label="elfyLeftUpperLeg" />
          <use inkscape:label="elfyLeftFoot" x="0" y="0" xlink:href="#elfyFoot" id="use2279" transform="matrix(0.2330025,-0.2706518,0.2706518,0.2330025,190.33174,-10.132542)" width="744.09448" height="1052.3622" />
          <use x="0" y="0" xlink:href="#elfyToes" id="use2281" transform="matrix(0.348123,7.9703284e-2,-7.9703284e-2,0.348123,195.67587,17.448053)" width="744.09448" height="1052.3622" inkscape:label="elfyLeftToes" />
          <use x="0" y="0" xlink:href="#elfyLowerLeg" id="use2283" transform="matrix(0.1673444,0.3154971,-0.3154971,0.1673444,229.45725,-39.137643)" width="744.09448" height="1052.3622" inkscape:label="elfyLeftLowerLeg" />
          <use x="0" y="0" xlink:href="#elfyBody" id="use2285" transform="matrix(0.357131,0,0,0.357131,173.0665,-68.955071)" width="744.09448" height="1052.3622" inkscape:label="elfyBody" />
          <use x="0" y="0" xlink:href="#elfyUpperLeg" id="use2287" transform="matrix(0.3347687,0.1243883,-0.1243883,0.3347687,166.90031,-51.281407)" width="744.09448" height="1052.3622" inkscape:label="elfyRightUpperLeg" />
          <use x="0" y="0" xlink:href="#elfyFoot" id="use2289" transform="matrix(6.521601e-2,-0.351126,0.351126,6.521601e-2,131.0329,50.62124)" width="744.09448" height="1052.3622" inkscape:label="elfyRightFoot" />
          <use x="0" y="0" xlink:href="#elfyToes" id="use2291" transform="matrix(-2.980196e-2,-0.355885,0.355885,-2.980196e-2,152.5866,60.51701)" width="744.09448" height="1052.3622" inkscape:label="elfyRightToes" />
          <use x="0" y="0" xlink:href="#elfyLowerLeg" id="use2293" transform="matrix(0.321009,0.1565112,-0.1565112,0.321009,148.47995,0.2122087)" width="744.09448" height="1052.3622" inkscape:label="elfyRightLowerLeg" />
          <use inkscape:label="elfyRightUpperArm" height="1052.3622" width="744.09448" transform="matrix(0.357131,0,0,0.357131,157.82302,-96.960242)" id="use2295" xlink:href="#elfyUpperArm" y="0" x="0" />
          <use inkscape:label="elfyRightLowerArm" height="1052.3622" width="744.09448" transform="matrix(0.357131,0,0,0.357131,157.82302,-62.777682)" id="use2297" xlink:href="#elfyLowerArm" y="0" x="0" />
          <use inkscape:label="elfyRightHand" height="1052.3622" width="744.09448" transform="matrix(9.488965e-2,0.344294,-0.344294,9.488965e-2,162.22682,-26.574082)" id="use2299" xlink:href="#elfyHand" y="0" x="0" />
        </g>
      </g>
      <g inkscape:groupmode="layer" id="layer3" inkscape:label="frame3" class="keyframe">
        <g transform="translate(113.6962,29.57151)" inkscape:label="elfy" id="elfyPose2">
          <use inkscape:label="elfyLeftUpperArm" x="0" y="0" xlink:href="#elfyUpperArm" id="use3489" transform="matrix(0.276359,-0.272728,0.272728,0.276359,141.9486,-105.0993)" width="744.09448" height="1052.3622" />
          <use x="0" y="0" xlink:href="#elfyLowerArm" id="use3493" transform="matrix(2.546605e-2,-0.387435,0.387435,2.546605e-2,176.3574,-79.54072)" width="744.09448" height="1052.3622" inkscape:label="elfyLeftLowerArm" />
          <use x="0" y="0" xlink:href="#elfyHand" id="use3495" transform="matrix(0.240962,-0.304454,0.304454,0.240962,213.2988,-86.86336)" width="744.09448" height="1052.3622" inkscape:label="elfyLeftHand" />
          <use x="0" y="0" xlink:href="#elfyNeck" id="use3499" transform="matrix(0.371408,0.113186,-0.113186,0.371408,148.0446,-109.7387)" width="744.09448" height="1052.3622" inkscape:label="elfyNeck" />
          <use inkscape:label="elfyLeftEar" height="1052.3622" width="744.09448" transform="matrix(-0.121713,0.309661,0.36136,0.142033,177.2016,-144.3342)" id="use3503" xlink:href="#elfyEar" y="0" x="0" />
          <use x="0" y="0" xlink:href="#elfyHead" id="use3505" transform="matrix(0.328973,0.206231,-0.206231,0.328973,151.9656,-140.0387)" width="744.09448" height="1052.3622" inkscape:label="elfyHead" />
          <use x="0" y="0" xlink:href="#elfyEar" id="use3507" transform="matrix(0.378012,-8.866489e-2,8.866489e-2,0.378012,142.2488,-156.7539)" width="744.09448" height="1052.3622" inkscape:label="elfyRightEar" />
          <use x="0" y="0" xlink:href="#elfyUpperLeg" id="use3511" transform="matrix(0.1570779,-0.3550786,0.3550786,0.1570779,125.37935,-62.462134)" width="744.09448" height="1052.3622" inkscape:label="elfyLeftUpperLeg" />
          <use inkscape:label="elfyLeftFoot" x="0" y="0" xlink:href="#elfyFoot" id="use3517" transform="matrix(7.090263e-2,-0.381743,0.381743,7.090263e-2,218.3235,14.97708)" width="744.09448" height="1052.3622" />
          <use x="0" y="0" xlink:href="#elfyToes" id="use3519" transform="matrix(-3.24006e-2,-0.386917,0.386917,-3.24006e-2,245.6787,24.95131)" width="744.09448" height="1052.3622" inkscape:label="elfyLeftToes" />
          <use x="0" y="0" xlink:href="#elfyLowerLeg" id="use3521" transform="matrix(0.309087,-0.234989,0.234989,0.309087,177.46738,-31.37596)" width="744.09448" height="1052.3622" inkscape:label="elfyLeftLowerLeg" />
          <use x="0" y="0" xlink:href="#elfyBody" id="use3523" transform="matrix(0.288085,0.260312,-0.260312,0.288085,117.6838,-80.02784)" width="744.09448" height="1052.3622" inkscape:label="elfyBody" />
          <use x="0" y="0" xlink:href="#elfyUpperLeg" id="use3529" transform="matrix(0.300121,0.246338,-0.246338,0.300121,106.7127,-69.86538)" width="744.09448" height="1052.3622" inkscape:label="elfyRightUpperLeg" />
          <use x="0" y="0" xlink:href="#elfyFoot" id="use3535" transform="matrix(7.090263e-2,-0.381743,0.381743,7.090263e-2,13.93216,-5.926434)" width="744.09448" height="1052.3622" inkscape:label="elfyRightFoot" />
          <use x="0" y="0" xlink:href="#elfyToes" id="use3537" transform="matrix(-3.24006e-2,-0.386917,0.386917,-3.24006e-2,37.36523,4.832226)" width="744.09448" height="1052.3622" inkscape:label="elfyRightToes" />
          <use x="0" y="0" xlink:href="#elfyLowerLeg" id="use3539" transform="matrix(0.105712,0.373604,-0.373604,0.105712,69.09898,-26.65742)" width="744.09448" height="1052.3622" inkscape:label="elfyRightLowerLeg" />
          <use inkscape:label="elfyRightUpperArm" height="1052.3622" width="744.09448" transform="matrix(0.21726,0.321796,-0.321796,0.21726,126.8837,-114.3475)" id="use3543" xlink:href="#elfyUpperArm" y="0" x="0" />
          <use inkscape:label="elfyRightLowerArm" height="1052.3622" width="744.09448" transform="matrix(0.237019,-0.307533,0.307533,0.237019,100.5357,-86.91112)" id="use3547" xlink:href="#elfyLowerArm" y="0" x="0" />
          <use inkscape:label="elfyRightHand" height="1052.3622" width="744.09448" transform="matrix(0.380139,7.905323e-2,-7.905323e-2,0.380139,136.0437,-66.32978)" id="use3549" xlink:href="#elfyHand" y="0" x="0" />
        </g>
      </g>
      <g inkscape:groupmode="layer" id="layer4" inkscape:label="frame4" class="keyframe">
        <use height="400" width="500" transform="translate(182.8572,34.75001)" id="use1388" xlink:href="#elfyPose1" y="0" x="0" inkscape:label="elfy" />
      </g>
    </g>
</svg>
