<?xml version="1.0" encoding="UTF-8" standalone="no"?>
<svg
   xmlns:dc="http://purl.org/dc/elements/1.1/"
   xmlns:cc="http://web.resource.org/cc/"
   xmlns:rdf="http://www.w3.org/1999/02/22-rdf-syntax-ns#"
   xmlns:svg="http://www.w3.org/2000/svg"
   xmlns="http://www.w3.org/2000/svg"
   xmlns:xlink="http://www.w3.org/1999/xlink"
   xmlns:sodipodi="http://sodipodi.sourceforge.net/DTD/sodipodi-0.dtd"
   xmlns:inkscape="http://www.inkscape.org/namespaces/inkscape"
   width="550px"
   height="400px"
   id="svg2"
   sodipodi:version="0.32"
   inkscape:version="0.45.1"
   sodipodi:docname="innerframes-madevisible.svg"
   sodipodi:docbase="/home/gerrit/workspace/cutout_generator/res"
   inkscape:output_extension="org.inkscape.output.svg.inkscape">
  <metadata
     id="metadata63">
    <rdf:RDF>
      <cc:Work
         rdf:about="">
        <dc:format>image/svg+xml</dc:format>
        <dc:type
           rdf:resource="http://purl.org/dc/dcmitype/StillImage" />
      </cc:Work>
    </rdf:RDF>
  </metadata>
  <sodipodi:namedview
     inkscape:window-height="741"
     inkscape:window-width="951"
     inkscape:pageshadow="2"
     inkscape:pageopacity="0.0"
     guidetolerance="10.0"
     gridtolerance="10.0"
     objecttolerance="10.0"
     borderopacity="1.0"
     bordercolor="#666666"
     pagecolor="#ffffff"
     id="base"
     inkscape:zoom="1.0175"
     inkscape:cx="84.25856"
     inkscape:cy="357.24816"
     inkscape:window-x="38"
     inkscape:window-y="0"
     inkscape:current-layer="svg2" />
  <defs
     id="defs">
    <path
       id="object1"
       fill="#3366cc"
       stroke-width="1px"
       stroke="#000066"
       d="M -0.25,-7.7 q 6,1.9 12,4.95 q 6.3,3.2 12.8,5.6 l 2.35,1.2 q 3.5,2.3 5.3,6.05 q 1.05,2.2 2.7,4.05 q 2.4,2.75 3.9,6.15 l 1.1,1.85 q 1.65,2.15 1.45,5.2 l 0.05,4.95 l 0.8,11.95 q 0.25,2.75 -1.45,2.7 q -12,-0.35 -23.1,1.95 l -3.8,0.8 q -1.6,-0.4 -2.1,-1.4 q -2.4,-4.9 -2.9,-10.95 q -0.1,-1.55 -0.9,-3.15 q -2.6,-5.15 -3.55,-10.85 q -0.15,-1.05 -0.85,-1.9 q -2.15,-2.55 -3.25,-7.05 q -0.6,-2.4 -3.25,-4.5 l -1.55,-1.35 l -1.45,-1.5 q -2,-2.25 -4.15,-3.1 q -2.8,-1.2 -4.15,-3.65 l 1.1,-0.7 l 1.8,-0.6 q 0.6,-0.2 11.1,-6.7 z" />
    <g
       id="object2"
       numberOfFrames="1">
      <use
         transform="translate(0,0)"
         id="use1"
         xlink:href="#object1" />
    </g>
    <path
       id="object3"
       fill="#66cc00"
       stroke-width="1px"
       stroke="#000066"
       d="M 15.35,-54.8 q 0,5 0.45,9.95 q 0.1,0.55 0.6,1 q 1.45,1.15 1.8,2.85 q 0.15,0.75 1.1,1.25 q 1.7,1 1.75,3.95 q 0.3,8 -0.15,16 q -0.05,1 -0.6,1.95 q -0.95,1.65 1.45,8.2 q 2.2,6.15 3.5,7.3 q 5.85,5.1 -4.8,6.2 q -10.7,1.05 -18.15,4.4 q -7.6,3.3 -15.4,1.15 q -7.95,-2.2 -12.2,-6.9 q -4.35,-4.8 -5.35,-4.8 q -0.95,-3.95 1.9,-4.35 q 1,-0.15 2.2,-1 q 6.25,-4.85 11.7,-10.35 q 2,-2.1 3.65,-4.5 l 1.3,-1.55 q 0.75,-0.75 0.45,-2.5 q -0.3,-1.85 1.25,-4.45 q 1.55,-2.6 1.8,-4.7 q 0.25,-2.15 -0.4,-3 q -1.05,-1.4 -1.05,-4.1 q 0,-1.2 -1.3,-2.5 q -0.5,-0.5 -0.65,-1.5 l -0.7,-5 q -0.15,-1.05 -14.15,-17 q 35.1,-17.6 36.9,-10.75 q 1.8,6.9 16.4,13.4 q 14.65,6.55 0.65,8.45 q -13.95,1.9 -13.95,2.9 z" />
    <g
       id="object4"
       numberOfFrames="1">
      <use
         transform="translate(0,0)"
         id="use2"
         xlink:href="#object3" />
    </g>
    <path
       id="object5"
       fill="#ff0000"
       stroke-width="1px"
       stroke="#000066"
       d="M 6.25,-7.2 l 5.6,-0.2 l 0.1,3.1 l 0.1,2.65 q 0.45,6.75 1.8,13.35 l 0.45,2.05 l 0.8,4.85 l 0.6,5 q 0.95,7.25 -1.85,13.25 l -1.65,2.95 q -3.5,5.25 -6.3,10.85 q -1.4,2.8 -2.7,4.25 q -0.85,1.05 -2.65,2.25 q -0.7,0.45 -1.4,0 l -1.6,-1.15 q -2.05,-1.55 -4.65,-2.55 q -3.4,-1.25 -7.05,-1.35 l -11.05,-1.1 q -3.3,-0.6 -6.2,-1.85 q -1.25,-0.55 -2.75,-0.5 q -3.65,0.1 -3.8,-3.05 q -0.2,-4.1 2.75,-7.05 l 1.05,-0.8 q 1.25,-0.8 2.85,-1.05 q 0.65,-0.1 1.45,-0.7 q 1.2,-0.9 2.6,-1.6 q 7.6,-3.7 12.25,-10.7 l 2.3,-4.35 q 0.55,-1.25 0.8,-2.7 q 0.5,-3.55 -0.85,-6.25 l -0.7,-1.7 l -0.3,-1.2 l -0.7,-3.85 q -0.3,-2.15 0.9,-2.8 q 0.4,-0.25 0.65,-1.2 q 0.65,-2.55 2.1,-3.6 q 0.65,-0.45 1.6,-0.7 q 1.05,-0.25 2.05,-0.8 q 2.05,-1.1 10.25,-1.6 l 3.15,-0.15 z" />
    <g
       id="object6"
       numberOfFrames="1">
      <use
         transform="translate(0,0)"
         id="use3"
         xlink:href="#object5" />
    </g>
    <g
       id="object7"
       numberOfFrames="1">
      <use
         transform="translate(8.85,-0.3)"
         id="use4"
         xlink:href="#object2"
         inkscape:label="mymodel_rearleg" />
      <use
         transform="translate(-2.2,4.75)"
         id="use5"
         xlink:href="#object4"
         inkscape:label="mymodel_body" />
      <use
         transform="translate(-13.1,2.05)"
         id="use6"
         xlink:href="#object6"
         inkscape:label="mymodel_frontleg" />
    </g>
    <g
       id="mymodel"
       numberOfFrames="1">
      <use
         transform="translate(0.5,-32.4)"
         id="use7"
         xlink:href="#object7"
         inkscape:label="mymodel_body" />
    </g>
  </defs>
  <g
     inkscape:groupmode="layer"
     id="frame13"
     inkscape:label="frame1"
     model="mymodel"
     easing="quadratic"
     alignment="out"
     duration="1.500000000000000">
    <g
       id="innerFrames"
       numberOfFrames="7">
      <g
         inkscape:groupmode="layer"
         id="frame6"
         inkscape:label="frame1"
         model="mymodel"
         easing="quadratic"
         alignment="inout"
         duration="2.500000000000000">
        <use
           transform="translate(-160.35,1)"
           id="use8"
           xlink:href="#object2"
           inkscape:label="mymodel_rearleg" />
        <use
           transform="translate(-177.35,11.75)"
           id="use9"
           xlink:href="#object4"
           inkscape:label="mymodel_body" />
        <use
           transform="translate(-194.85,7.4)"
           id="use10"
           xlink:href="#object6"
           inkscape:label="mymodel_frontleg" />
      </g>
      <g
         inkscape:groupmode="layer"
         id="frame7"
         inkscape:label="frame2"
         easing="quadratic"
         alignment="out"
         duration="1.500000000000000">
        <use
           transform="matrix(0.9659271240234375,-0.2588195800781250,0.8053741455078125,0.8194732666015625,-112.35,-29)"
           id="use26"
           xlink:href="#object2"
           inkscape:label="mymodel_rearleg" />
        <use
           transform="matrix(0.9239349365234375,-0.3795013427734375,-0.2018585205078125,1.162719726562500,-137.4,-19.2)"
           id="use28"
           xlink:href="#object4"
           inkscape:label="mymodel_body" />
        <use
           transform="matrix(1.061981201171875,-0.06295776367187500,-0.4956512451171875,1.314483642578125,-154.9,-4.6)"
           id="use30"
           xlink:href="#object6"
           inkscape:label="mymodel_frontleg" />
      </g>
      <g
         inkscape:groupmode="layer"
         id="frame8"
         inkscape:label="frame3">
        <use
           transform="matrix(0.8585357666015625,0.1968078613281250,0.6277923583984375,1.308700561523438,-96.75,-11.5)"
           id="use33"
           xlink:href="#object2"
           inkscape:label="mymodel_rearleg" />
        <use
           transform="matrix(0.8324279785156250,0.04238891601562500,-0.2736816406250000,1.184585571289062,-119.3,-13.15)"
           id="use35"
           xlink:href="#object4"
           inkscape:label="mymodel_body" />
        <use
           transform="matrix(1.046646118164062,-0.1536407470703125,-0.2930755615234375,1.173187255859375,-135.8,-5.75)"
           id="use37"
           xlink:href="#object6"
           inkscape:label="mymodel_frontleg" />
      </g>
      <g
         inkscape:groupmode="layer"
         id="frame9"
         inkscape:label="frame4">
        <use
           transform="matrix(0.8584747314453125,-0.05842590332031250,0.0002593994140625000,0.9981689453125000,-57.8,29.3)"
           id="use40"
           xlink:href="#object2"
           inkscape:label="mymodel_rearleg" />
        <use
           transform="matrix(1.164245605468750,0.05081176757812500,-0.08737182617187500,0.9128265380859375,-79.7,31.85)"
           id="use42"
           xlink:href="#object4"
           inkscape:label="mymodel_body" />
        <use
           transform="matrix(1.045059204101562,0.1437225341796875,-0.8194122314453125,0.6597290039062500,-96.8,26.15)"
           id="use44"
           xlink:href="#object6"
           inkscape:label="mymodel_frontleg" />
      </g>
      <g
         inkscape:groupmode="layer"
         id="frame10"
         inkscape:label="frame5">
        <use
           transform="matrix(0.8584747314453125,-0.05842590332031250,0.0002593994140625000,0.9981689453125000,-57.8,29.3)"
           id="use47"
           xlink:href="#object2"
           inkscape:label="mymodel_rearleg" />
        <use
           transform="matrix(1.164245605468750,0.05081176757812500,-0.1143035888671875,1.194107055664062,-79.7,31.85)"
           id="use49"
           xlink:href="#object4"
           inkscape:label="mymodel_body" />
        <use
           transform="matrix(1.045059204101562,0.1437225341796875,-0.8194122314453125,0.6597290039062500,-96.8,26.15)"
           id="use51"
           xlink:href="#object6"
           inkscape:label="mymodel_frontleg" />
      </g>
      <g
         inkscape:groupmode="layer"
         id="frame11"
         inkscape:label="frame6">
        <use
           transform="matrix(1.164245605468750,0.05081176757812500,-0.1143035888671875,1.194107055664062,-79.7,31.85)"
           id="use54"
           xlink:href="#object4"
           inkscape:label="mymodel_body" />
      </g>
      <g
         inkscape:groupmode="layer"
         id="frame12"
         inkscape:label="frame7">
        <use
           transform="matrix(0.8584747314453125,-0.05842590332031250,0.0002593994140625000,0.9981689453125000,-57.8,29.3)"
           id="use21"
           xlink:href="#object2"
           inkscape:label="mymodel_rearleg" />
        <use
           transform="matrix(1.164245605468750,0.05081176757812500,-0.1143035888671875,1.194107055664062,-79.7,31.85)"
           id="use58"
           xlink:href="#object4"
           inkscape:label="mymodel_body" />
        <use
           transform="matrix(1.045059204101562,0.1437225341796875,-0.8194122314453125,0.6597290039062500,-96.8,26.15)"
           id="use22"
           xlink:href="#object6"
           inkscape:label="mymodel_frontleg" />
      </g>
    </g>
  </g>
</svg>
